<svg xmlns="http://www.w3.org/2000/svg" viewBox="0 0 376 412" width="376" height="412" font-family="ui-sans-serif, system-ui, -apple-system, Segoe UI, sans-serif">
<rect width="376" height="412" fill="#ffffff"/>
<rect x="20" y="20" width="48" height="48" fill="#1f2933" stroke="#c4cdd5" stroke-width="1"/>
<rect x="68" y="20" width="48" height="48" fill="#1f2933" stroke="#c4cdd5" stroke-width="1"/>
<rect x="116" y="20" width="48" height="48" fill="#1f2933" stroke="#c4cdd5" stroke-width="1"/>
<rect x="164" y="20" width="48" height="48" fill="#1f2933" stroke="#c4cdd5" stroke-width="1"/>
<rect x="212" y="20" width="48" height="48" fill="#1f2933" stroke="#c4cdd5" stroke-width="1"/>
<rect x="260" y="20" width="48" height="48" fill="#1f2933" stroke="#c4cdd5" stroke-width="1"/>
<rect x="308" y="20" width="48" height="48" fill="#1f2933" stroke="#c4cdd5" stroke-width="1"/>
<rect x="20" y="68" width="48" height="48" fill="#1f2933" stroke="#c4cdd5" stroke-width="1"/>
<rect x="68" y="68" width="48" height="48" fill="#f7f7f7" stroke="#c4cdd5" stroke-width="1"/>
<circle cx="92" cy="92" r="16" fill="#0f5fbf"/>
<text x="92" y="96" font-size="14" font-weight="600" fill="white" text-anchor="middle">S</text>
<rect x="116" y="68" width="48" height="48" fill="#1f2933" stroke="#c4cdd5" stroke-width="1"/>
<rect x="164" y="68" width="48" height="48" fill="#f7f7f7" stroke="#c4cdd5" stroke-width="1"/>
<rect x="212" y="68" width="48" height="48" fill="#f7f7f7" stroke="#c4cdd5" stroke-width="1"/>
<rect x="260" y="68" width="48" height="48" fill="#f7f7f7" stroke="#c4cdd5" stroke-width="1"/>
<rect x="308" y="68" width="48" height="48" fill="#1f2933" stroke="#c4cdd5" stroke-width="1"/>
<rect x="20" y="116" width="48" height="48" fill="#1f2933" stroke="#c4cdd5" stroke-width="1"/>
<rect x="68" y="116" width="48" height="48" fill="#f7f7f7" stroke="#c4cdd5" stroke-width="1"/>
<rect x="116" y="116" width="48" height="48" fill="#1f2933" stroke="#c4cdd5" stroke-width="1"/>
<rect x="164" y="116" width="48" height="48" fill="#f7f7f7" stroke="#c4cdd5" stroke-width="1"/>
<rect x="212" y="116" width="48" height="48" fill="#1f2933" stroke="#c4cdd5" stroke-width="1"/>
<rect x="260" y="116" width="48" height="48" fill="#f7f7f7" stroke="#c4cdd5" stroke-width="1"/>
<rect x="308" y="116" width="48" height="48" fill="#1f2933" stroke="#c4cdd5" stroke-width="1"/>
<rect x="20" y="164" width="48" height="48" fill="#1f2933" stroke="#c4cdd5" stroke-width="1"/>
<rect x="68" y="164" width="48" height="48" fill="#f7f7f7" stroke="#c4cdd5" stroke-width="1"/>
<rect x="116" y="164" width="48" height="48" fill="#1f2933" stroke="#c4cdd5" stroke-width="1"/>
<rect x="164" y="164" width="48" height="48" fill="#f7f7f7" stroke="#c4cdd5" stroke-width="1"/>
<rect x="212" y="164" width="48" height="48" fill="#1f2933" stroke="#c4cdd5" stroke-width="1"/>
<rect x="260" y="164" width="48" height="48" fill="#f7f7f7" stroke="#c4cdd5" stroke-width="1"/>
<rect x="308" y="164" width="48" height="48" fill="#1f2933" stroke="#c4cdd5" stroke-width="1"/>
<rect x="20" y="212" width="48" height="48" fill="#1f2933" stroke="#c4cdd5" stroke-width="1"/>
<rect x="68" y="212" width="48" height="48" fill="#f7f7f7" stroke="#c4cdd5" stroke-width="1"/>
<rect x="116" y="212" width="48" height="48" fill="#f7f7f7" stroke="#c4cdd5" stroke-width="1"/>
<rect x="164" y="212" width="48" height="48" fill="#f7f7f7" stroke="#c4cdd5" stroke-width="1"/>
<rect x="212" y="212" width="48" height="48" fill="#1f2933" stroke="#c4cdd5" stroke-width="1"/>
<rect x="260" y="212" width="48" height="48" fill="#f7f7f7" stroke="#c4cdd5" stroke-width="1"/>
<rect x="308" y="212" width="48" height="48" fill="#1f2933" stroke="#c4cdd5" stroke-width="1"/>
<rect x="20" y="260" width="48" height="48" fill="#1f2933" stroke="#c4cdd5" stroke-width="1"/>
<rect x="68" y="260" width="48" height="48" fill="#f7f7f7" stroke="#c4cdd5" stroke-width="1"/>
<rect x="116" y="260" width="48" height="48" fill="#1f2933" stroke="#c4cdd5" stroke-width="1"/>
<rect x="164" y="260" width="48" height="48" fill="#1f2933" stroke="#c4cdd5" stroke-width="1"/>
<rect x="212" y="260" width="48" height="48" fill="#1f2933" stroke="#c4cdd5" stroke-width="1"/>
<rect x="260" y="260" width="48" height="48" fill="#f7f7f7" stroke="#c4cdd5" stroke-width="1"/>
<circle cx="284" cy="284" r="16" fill="#b34a00"/>
<text x="284" y="288" font-size="14" font-weight="600" fill="white" text-anchor="middle">G</text>
<rect x="308" y="260" width="48" height="48" fill="#1f2933" stroke="#c4cdd5" stroke-width="1"/>
<rect x="20" y="308" width="48" height="48" fill="#1f2933" stroke="#c4cdd5" stroke-width="1"/>
<rect x="68" y="308" width="48" height="48" fill="#1f2933" stroke="#c4cdd5" stroke-width="1"/>
<rect x="116" y="308" width="48" height="48" fill="#1f2933" stroke="#c4cdd5" stroke-width="1"/>
<rect x="164" y="308" width="48" height="48" fill="#1f2933" stroke="#c4cdd5" stroke-width="1"/>
<rect x="212" y="308" width="48" height="48" fill="#1f2933" stroke="#c4cdd5" stroke-width="1"/>
<rect x="260" y="308" width="48" height="48" fill="#1f2933" stroke="#c4cdd5" stroke-width="1"/>
<rect x="308" y="308" width="48" height="48" fill="#1f2933" stroke="#c4cdd5" stroke-width="1"/>
<path d="M 92,92 L 92,140 L 92,188 L 92,236 L 140,236 L 188,236 L 188,188 L 188,140 L 188,92 L 236,92 L 284,92 L 284,140 L 284,188 L 284,236 L 284,284" fill="none" stroke="#0f5fbf" stroke-width="3" stroke-opacity="0.5" stroke-linecap="round" stroke-linejoin="round" stroke-dasharray="6,4"/>
<text x="188" y="400" font-size="12" fill="#52606d" text-anchor="middle">Two-room maze, 7x7. Optimal path = 14 actions. Naive greedy gets stuck on walls.</text>
</svg>
