<svg xmlns="http://www.w3.org/2000/svg" viewBox="0 0 760 460" width="760" height="460" font-family="ui-sans-serif, system-ui, -apple-system, Segoe UI, sans-serif" class="paper-fig">
<rect width="760" height="460" fill="#ffffff"/>
<text x="380" y="22" font-size="14" font-weight="600" fill="#1f2933" text-anchor="middle">Cross-env CPG: Acrobot vs Cartpole vs Reacher</text>
<text x="380" y="40" font-size="11" fill="#52606d" text-anchor="middle">Asymmetric Agresti-Caffo 95% CI per bar. Sources: results/dmc_{acrobot,cartpole,reacher}/.</text>
<line x1="70.0" y1="348.8" x2="710.0" y2="348.8" stroke="#d8e0e8" stroke-dasharray="2,3" stroke-width="0.8"/>
<text x="62.0" y="352.8" font-size="11" fill="#52606d" text-anchor="end">0.00</text>
<line x1="70.0" y1="280.0" x2="710.0" y2="280.0" stroke="#d8e0e8" stroke-dasharray="2,3" stroke-width="0.8"/>
<text x="62.0" y="284.0" font-size="11" fill="#52606d" text-anchor="end">0.25</text>
<line x1="70.0" y1="211.2" x2="710.0" y2="211.2" stroke="#d8e0e8" stroke-dasharray="2,3" stroke-width="0.8"/>
<text x="62.0" y="215.2" font-size="11" fill="#52606d" text-anchor="end">0.50</text>
<line x1="70.0" y1="142.5" x2="710.0" y2="142.5" stroke="#d8e0e8" stroke-dasharray="2,3" stroke-width="0.8"/>
<text x="62.0" y="146.5" font-size="11" fill="#52606d" text-anchor="end">0.75</text>
<line x1="70.0" y1="73.8" x2="710.0" y2="73.8" stroke="#d8e0e8" stroke-dasharray="2,3" stroke-width="0.8"/>
<text x="62.0" y="77.8" font-size="11" fill="#52606d" text-anchor="end">1.00</text>
<line x1="70.0" y1="60.0" x2="70.0" y2="390.0" stroke="#52606d" stroke-width="1"/>
<line x1="70.0" y1="390.0" x2="710.0" y2="390.0" stroke="#52606d" stroke-width="1"/>
<line x1="70" y1="348.8" x2="710" y2="348.8" stroke="#7b8794" stroke-dasharray="3,3" stroke-width="0.8"/>
<text x="20" y="225" font-size="11" fill="#52606d" text-anchor="middle" transform="rotate(-90 20 225)">Counterfactual Planning Gap</text>
<text x="150.0" y="410.0" font-size="11" fill="#52606d" text-anchor="middle">RS x MLP</text>
<text x="310.0" y="410.0" font-size="11" fill="#52606d" text-anchor="middle">RS x TD-MPC2</text>
<text x="470.0" y="410.0" font-size="11" fill="#52606d" text-anchor="middle">CEM x MLP</text>
<text x="630.0" y="410.0" font-size="11" fill="#52606d" text-anchor="middle">CEM x TD-MPC2</text>
<rect x="79.0" y="266.2" width="38.0" height="82.5" fill="#5083c2" stroke="#2f5a8a" stroke-width="1"/>
<line x1="98.0" y1="195.0" x2="98.0" y2="365.0" stroke="#2f5a8a" stroke-width="1.4"/><line x1="94.0" y1="195.0" x2="102.0" y2="195.0" stroke="#2f5a8a" stroke-width="1.4"/><line x1="94.0" y1="365.0" x2="102.0" y2="365.0" stroke="#2f5a8a" stroke-width="1.4"/>
<rect x="119.0" y="101.2" width="38.0" height="247.5" fill="#d68a3c" stroke="#9a5e1f" stroke-width="1"/>
<line x1="138.0" y1="81.2" x2="138.0" y2="152.4" stroke="#9a5e1f" stroke-width="1.4"/><line x1="134.0" y1="81.2" x2="142.0" y2="81.2" stroke="#9a5e1f" stroke-width="1.4"/><line x1="134.0" y1="152.4" x2="142.0" y2="152.4" stroke="#9a5e1f" stroke-width="1.4"/>
<rect x="159.0" y="156.2" width="38.0" height="192.5" fill="#5aa46f" stroke="#256634" stroke-width="1"/>
<line x1="178.0" y1="121.0" x2="178.0" y2="215.4" stroke="#256634" stroke-width="1.4"/><line x1="174.0" y1="121.0" x2="182.0" y2="121.0" stroke="#256634" stroke-width="1.4"/><line x1="174.0" y1="215.4" x2="182.0" y2="215.4" stroke="#256634" stroke-width="1.4"/>
<rect x="239.0" y="266.2" width="38.0" height="82.5" fill="#5083c2" stroke="#2f5a8a" stroke-width="1"/>
<line x1="258.0" y1="195.0" x2="258.0" y2="365.0" stroke="#2f5a8a" stroke-width="1.4"/><line x1="254.0" y1="195.0" x2="262.0" y2="195.0" stroke="#2f5a8a" stroke-width="1.4"/><line x1="254.0" y1="365.0" x2="262.0" y2="365.0" stroke="#2f5a8a" stroke-width="1.4"/>
<rect x="279.0" y="156.2" width="38.0" height="192.5" fill="#d68a3c" stroke="#9a5e1f" stroke-width="1"/>
<line x1="298.0" y1="117.7" x2="298.0" y2="218.7" stroke="#9a5e1f" stroke-width="1.4"/><line x1="294.0" y1="117.7" x2="302.0" y2="117.7" stroke="#9a5e1f" stroke-width="1.4"/><line x1="294.0" y1="218.7" x2="302.0" y2="218.7" stroke="#9a5e1f" stroke-width="1.4"/>
<rect x="319.0" y="229.7" width="38.0" height="119.1" fill="#5aa46f" stroke="#256634" stroke-width="1"/>
<line x1="338.0" y1="187.1" x2="338.0" y2="287.1" stroke="#256634" stroke-width="1.4"/><line x1="334.0" y1="187.1" x2="342.0" y2="187.1" stroke="#256634" stroke-width="1.4"/><line x1="334.0" y1="287.1" x2="342.0" y2="287.1" stroke="#256634" stroke-width="1.4"/>
<rect x="399.0" y="106.7" width="38.0" height="242.0" fill="#5083c2" stroke="#2f5a8a" stroke-width="1"/>
<line x1="418.0" y1="94.9" x2="418.0" y2="124.9" stroke="#2f5a8a" stroke-width="1.4"/><line x1="414.0" y1="94.9" x2="422.0" y2="94.9" stroke="#2f5a8a" stroke-width="1.4"/><line x1="414.0" y1="124.9" x2="422.0" y2="124.9" stroke="#2f5a8a" stroke-width="1.4"/>
<rect x="439.0" y="211.2" width="38.0" height="137.5" fill="#d68a3c" stroke="#9a5e1f" stroke-width="1"/>
<line x1="458.0" y1="169.4" x2="458.0" y2="270.4" stroke="#9a5e1f" stroke-width="1.4"/><line x1="454.0" y1="169.4" x2="462.0" y2="169.4" stroke="#9a5e1f" stroke-width="1.4"/><line x1="454.0" y1="270.4" x2="462.0" y2="270.4" stroke="#9a5e1f" stroke-width="1.4"/>
<rect x="479.0" y="165.3" width="38.0" height="183.4" fill="#5aa46f" stroke="#256634" stroke-width="1"/>
<line x1="498.0" y1="128.5" x2="498.0" y2="225.0" stroke="#256634" stroke-width="1.4"/><line x1="494.0" y1="128.5" x2="502.0" y2="128.5" stroke="#256634" stroke-width="1.4"/><line x1="494.0" y1="225.0" x2="502.0" y2="225.0" stroke="#256634" stroke-width="1.4"/>
<rect x="559.0" y="106.7" width="38.0" height="242.0" fill="#5083c2" stroke="#2f5a8a" stroke-width="1"/>
<line x1="578.0" y1="94.9" x2="578.0" y2="124.9" stroke="#2f5a8a" stroke-width="1.4"/><line x1="574.0" y1="94.9" x2="582.0" y2="94.9" stroke="#2f5a8a" stroke-width="1.4"/><line x1="574.0" y1="124.9" x2="582.0" y2="124.9" stroke="#2f5a8a" stroke-width="1.4"/>
<rect x="599.0" y="247.8" width="38.0" height="100.9" fill="#d68a3c" stroke="#9a5e1f" stroke-width="1"/>
<line x1="618.0" y1="195.3" x2="618.0" y2="313.0" stroke="#9a5e1f" stroke-width="1.4"/><line x1="614.0" y1="195.3" x2="622.0" y2="195.3" stroke="#9a5e1f" stroke-width="1.4"/><line x1="614.0" y1="313.0" x2="622.0" y2="313.0" stroke="#9a5e1f" stroke-width="1.4"/>
<rect x="639.0" y="247.8" width="38.0" height="100.9" fill="#5aa46f" stroke="#256634" stroke-width="1"/>
<line x1="658.0" y1="205.2" x2="658.0" y2="303.1" stroke="#256634" stroke-width="1.4"/><line x1="654.0" y1="205.2" x2="662.0" y2="205.2" stroke="#256634" stroke-width="1.4"/><line x1="654.0" y1="303.1" x2="662.0" y2="303.1" stroke="#256634" stroke-width="1.4"/>
<rect x="522" y="60" width="180" height="66" rx="4" fill="white" stroke="#d8e0e8"/>
<rect x="530" y="68" width="12" height="10" fill="#5083c2" stroke="#2f5a8a"/>
<text x="548" y="77" font-size="10" fill="#1f2933">Acrobot</text>
<rect x="530" y="84" width="12" height="10" fill="#d68a3c" stroke="#9a5e1f"/>
<text x="548" y="93" font-size="10" fill="#1f2933">Cartpole (size=5)</text>
<rect x="530" y="100" width="12" height="10" fill="#5aa46f" stroke="#256634"/>
<text x="548" y="109" font-size="10" fill="#1f2933">Reacher (size=1)</text>
</svg>
