<svg xmlns="http://www.w3.org/2000/svg" viewBox="0 0 720 440" width="720" height="440" font-family="ui-sans-serif, system-ui, -apple-system, Segoe UI, sans-serif" class="paper-fig">
<rect width="720" height="440" fill="#ffffff"/>
<text x="360" y="22" font-size="14" font-weight="600" fill="#1f2933" text-anchor="middle">Cartpole capacity sweep: model_size = 5 vs model_size = 1</text>
<text x="360" y="40" font-size="11" fill="#52606d" text-anchor="middle">Same protocol, identical 10^6-step budget. INCONCLUSIVE on the rightmost orange bar. n=30 pooled.</text>
<line x1="70.0" y1="336.8" x2="670.0" y2="336.8" stroke="#d8e0e8" stroke-dasharray="2,3" stroke-width="0.8"/>
<text x="62.0" y="340.8" font-size="11" fill="#52606d" text-anchor="end">-0.20</text>
<line x1="70.0" y1="292.5" x2="670.0" y2="292.5" stroke="#d8e0e8" stroke-dasharray="2,3" stroke-width="0.8"/>
<text x="62.0" y="296.5" font-size="11" fill="#52606d" text-anchor="end">0.00</text>
<line x1="70.0" y1="248.2" x2="670.0" y2="248.2" stroke="#d8e0e8" stroke-dasharray="2,3" stroke-width="0.8"/>
<text x="62.0" y="252.2" font-size="11" fill="#52606d" text-anchor="end">0.20</text>
<line x1="70.0" y1="203.9" x2="670.0" y2="203.9" stroke="#d8e0e8" stroke-dasharray="2,3" stroke-width="0.8"/>
<text x="62.0" y="207.9" font-size="11" fill="#52606d" text-anchor="end">0.40</text>
<line x1="70.0" y1="159.6" x2="670.0" y2="159.6" stroke="#d8e0e8" stroke-dasharray="2,3" stroke-width="0.8"/>
<text x="62.0" y="163.6" font-size="11" fill="#52606d" text-anchor="end">0.60</text>
<line x1="70.0" y1="115.4" x2="670.0" y2="115.4" stroke="#d8e0e8" stroke-dasharray="2,3" stroke-width="0.8"/>
<text x="62.0" y="119.4" font-size="11" fill="#52606d" text-anchor="end">0.80</text>
<line x1="70.0" y1="71.1" x2="670.0" y2="71.1" stroke="#d8e0e8" stroke-dasharray="2,3" stroke-width="0.8"/>
<text x="62.0" y="75.1" font-size="11" fill="#52606d" text-anchor="end">1.00</text>
<line x1="70.0" y1="60.0" x2="70.0" y2="370.0" stroke="#52606d" stroke-width="1"/>
<line x1="70.0" y1="370.0" x2="670.0" y2="370.0" stroke="#52606d" stroke-width="1"/>
<line x1="70" y1="292.5" x2="670" y2="292.5" stroke="#7b8794" stroke-dasharray="3,3" stroke-width="0.8"/>
<text x="20" y="215" font-size="11" fill="#52606d" text-anchor="middle" transform="rotate(-90 20 215)">Counterfactual Planning Gap</text>
<text x="145.0" y="390.0" font-size="11" fill="#52606d" text-anchor="middle">RS x MLP</text>
<text x="295.0" y="390.0" font-size="11" fill="#52606d" text-anchor="middle">RS x TD-MPC2</text>
<text x="445.0" y="390.0" font-size="11" fill="#52606d" text-anchor="middle">CEM x MLP</text>
<text x="595.0" y="390.0" font-size="11" fill="#52606d" text-anchor="middle">CEM x TD-MPC2</text>
<rect x="81.0" y="93.2" width="48.0" height="199.3" fill="#5083c2" stroke="#2f5a8a" stroke-width="1"/>
<line x1="105.0" y1="77.0" x2="105.0" y2="134.4" stroke="#2f5a8a" stroke-width="1.4"/><line x1="101.0" y1="77.0" x2="109.0" y2="77.0" stroke="#2f5a8a" stroke-width="1.4"/><line x1="101.0" y1="134.4" x2="109.0" y2="134.4" stroke="#2f5a8a" stroke-width="1.4"/>
<rect x="131.0" y="93.2" width="48.0" height="199.3" fill="#d68a3c" stroke="#9a5e1f" stroke-width="1"/>
<line x1="155.0" y1="77.0" x2="155.0" y2="134.4" stroke="#9a5e1f" stroke-width="1.4"/><line x1="151.0" y1="77.0" x2="159.0" y2="77.0" stroke="#9a5e1f" stroke-width="1.4"/><line x1="151.0" y1="134.4" x2="159.0" y2="134.4" stroke="#9a5e1f" stroke-width="1.4"/>
<rect x="231.0" y="137.5" width="48.0" height="155.0" fill="#5083c2" stroke="#2f5a8a" stroke-width="1"/>
<line x1="255.0" y1="106.5" x2="255.0" y2="187.8" stroke="#2f5a8a" stroke-width="1.4"/><line x1="251.0" y1="106.5" x2="259.0" y2="106.5" stroke="#2f5a8a" stroke-width="1.4"/><line x1="251.0" y1="187.8" x2="259.0" y2="187.8" stroke="#2f5a8a" stroke-width="1.4"/>
<rect x="281.0" y="203.9" width="48.0" height="88.6" fill="#d68a3c" stroke="#9a5e1f" stroke-width="1"/>
<line x1="305.0" y1="163.4" x2="305.0" y2="255.5" stroke="#9a5e1f" stroke-width="1.4"/><line x1="301.0" y1="163.4" x2="309.0" y2="163.4" stroke="#9a5e1f" stroke-width="1.4"/><line x1="301.0" y1="255.5" x2="309.0" y2="255.5" stroke="#9a5e1f" stroke-width="1.4"/>
<rect x="381.0" y="181.8" width="48.0" height="110.7" fill="#5083c2" stroke="#2f5a8a" stroke-width="1"/>
<line x1="405.0" y1="148.1" x2="405.0" y2="229.4" stroke="#2f5a8a" stroke-width="1.4"/><line x1="401.0" y1="148.1" x2="409.0" y2="148.1" stroke="#2f5a8a" stroke-width="1.4"/><line x1="401.0" y1="229.4" x2="409.0" y2="229.4" stroke="#2f5a8a" stroke-width="1.4"/>
<rect x="431.0" y="196.6" width="48.0" height="95.9" fill="#d68a3c" stroke="#9a5e1f" stroke-width="1"/>
<line x1="455.0" y1="158.1" x2="455.0" y2="246.9" stroke="#9a5e1f" stroke-width="1.4"/><line x1="451.0" y1="158.1" x2="459.0" y2="158.1" stroke="#9a5e1f" stroke-width="1.4"/><line x1="451.0" y1="246.9" x2="459.0" y2="246.9" stroke="#9a5e1f" stroke-width="1.4"/>
<rect x="531.0" y="211.2" width="48.0" height="81.3" fill="#5083c2" stroke="#2f5a8a" stroke-width="1"/>
<line x1="555.0" y1="168.9" x2="555.0" y2="263.7" stroke="#2f5a8a" stroke-width="1.4"/><line x1="551.0" y1="168.9" x2="559.0" y2="168.9" stroke="#2f5a8a" stroke-width="1.4"/><line x1="551.0" y1="263.7" x2="559.0" y2="263.7" stroke="#2f5a8a" stroke-width="1.4"/>
<rect x="581.0" y="292.5" width="48.0" height="7.3" fill="#d68a3c" stroke="#9a5e1f" stroke-width="1"/>
<line x1="605.0" y1="245.1" x2="605.0" y2="353.6" stroke="#9a5e1f" stroke-width="1.4"/><line x1="601.0" y1="245.1" x2="609.0" y2="245.1" stroke="#9a5e1f" stroke-width="1.4"/><line x1="601.0" y1="353.6" x2="609.0" y2="353.6" stroke="#9a5e1f" stroke-width="1.4"/>
<rect x="482" y="60" width="180" height="50" rx="4" fill="white" stroke="#d8e0e8"/>
<rect x="490" y="68" width="12" height="10" fill="#5083c2" stroke="#2f5a8a"/>
<text x="508" y="77" font-size="10" fill="#1f2933">model_size = 5</text>
<rect x="490" y="84" width="12" height="10" fill="#d68a3c" stroke="#9a5e1f"/>
<text x="508" y="93" font-size="10" fill="#1f2933">model_size = 1</text>
</svg>
