<svg xmlns="http://www.w3.org/2000/svg" viewBox="0 0 640 400" width="640" height="400" font-family="ui-sans-serif, system-ui, -apple-system, Segoe UI, sans-serif" class="paper-fig paper-fig-5">
<rect width="640" height="400" fill="#ffffff"/>
<text x="320" y="20" font-size="14" font-weight="600" fill="#1f2933" text-anchor="middle">Verdict detectability map (oracle rate 0.94)</text>
<line x1="70.0" y1="344.0" x2="610.0" y2="344.0" stroke="#d8e0e8" stroke-dasharray="2,3" stroke-width="0.8"/>
<text x="62.0" y="348.0" font-size="11" fill="#52606d" text-anchor="end">0.0</text>
<line x1="70.0" y1="274.2" x2="610.0" y2="274.2" stroke="#d8e0e8" stroke-dasharray="2,3" stroke-width="0.8"/>
<text x="62.0" y="278.2" font-size="11" fill="#52606d" text-anchor="end">0.1</text>
<line x1="70.0" y1="204.4" x2="610.0" y2="204.4" stroke="#d8e0e8" stroke-dasharray="2,3" stroke-width="0.8"/>
<text x="62.0" y="208.4" font-size="11" fill="#52606d" text-anchor="end">0.2</text>
<line x1="70.0" y1="134.7" x2="610.0" y2="134.7" stroke="#d8e0e8" stroke-dasharray="2,3" stroke-width="0.8"/>
<text x="62.0" y="138.7" font-size="11" fill="#52606d" text-anchor="end">0.3</text>
<line x1="70.0" y1="64.9" x2="610.0" y2="64.9" stroke="#d8e0e8" stroke-dasharray="2,3" stroke-width="0.8"/>
<text x="62.0" y="68.9" font-size="11" fill="#52606d" text-anchor="end">0.4</text>
<line x1="70.0" y1="344.0" x2="70.0" y2="349.0" stroke="#52606d" stroke-width="1"/>
<text x="70.0" y="363.0" font-size="11" fill="#52606d" text-anchor="middle">10</text>
<line x1="198.8" y1="344.0" x2="198.8" y2="349.0" stroke="#52606d" stroke-width="1"/>
<text x="198.8" y="363.0" font-size="11" fill="#52606d" text-anchor="middle">30</text>
<line x1="340.0" y1="344.0" x2="340.0" y2="349.0" stroke="#52606d" stroke-width="1"/>
<text x="340.0" y="363.0" font-size="11" fill="#52606d" text-anchor="middle">100</text>
<line x1="468.8" y1="344.0" x2="468.8" y2="349.0" stroke="#52606d" stroke-width="1"/>
<text x="468.8" y="363.0" font-size="11" fill="#52606d" text-anchor="middle">300</text>
<line x1="610.0" y1="344.0" x2="610.0" y2="349.0" stroke="#52606d" stroke-width="1"/>
<text x="610.0" y="363.0" font-size="11" fill="#52606d" text-anchor="middle">1000</text>
<line x1="70.0" y1="30.0" x2="70.0" y2="344.0" stroke="#52606d" stroke-width="1"/>
<line x1="70.0" y1="344.0" x2="610.0" y2="344.0" stroke="#52606d" stroke-width="1"/>
<text x="340" y="390" font-size="11" fill="#52606d" text-anchor="middle">Episodes per arm n (log scale)</text>
<text x="16" y="187" font-size="11" fill="#52606d" text-anchor="middle" transform="rotate(-90 16 187)">Success-rate gap (oracle - learned)</text>
<polygon points="70.0,54.4 151.3,162.6 198.8,207.9 258.7,246.3 306.3,267.2 340.0,281.2 387.5,295.2 421.3,302.1 468.8,312.6 528.7,319.6 610.0,326.6 610.0,344.0 70.0,344.0" fill="#9aa3ad" fill-opacity="0.18"/>
<polyline points="70.0,54.4 151.3,162.6 198.8,207.9 258.7,246.3 306.3,267.2 340.0,281.2 387.5,295.2 421.3,302.1 468.8,312.6 528.7,319.6 610.0,326.6" fill="none" stroke="#5083c2" stroke-width="2"/>
<text x="476.4" y="309.1" font-size="11" fill="#52606d" text-anchor="middle">INCONCLUSIVE</text>
<text x="246.4" y="106.8" font-size="11" fill="#2f5a8a">DECIDABLE</text>
<polygon points="340.0,325.0 335.0,334.0 345.0,334.0" fill="#c45c3a" stroke="#8a3a1f"/>
<text x="349.0" y="334.0" font-size="10" fill="#8a3a1f">near-tie 0.94 vs 0.92</text>
<rect x="336.0" y="228.4" width="8" height="8" fill="#3a8a4f" stroke="#256634"/>
<text x="349.0" y="236.4" font-size="10" fill="#256634">gap 0.94 vs 0.78</text>
</svg>
