<svg xmlns="http://www.w3.org/2000/svg" viewBox="0 0 720 420" width="720" height="420" font-family="ui-sans-serif, system-ui, -apple-system, Segoe UI, sans-serif" class="paper-fig">
<rect width="720" height="420" fill="#ffffff"/>
<text x="360" y="22" font-size="14" font-weight="600" fill="#1f2933" text-anchor="middle">Coverage: random rollouts vs oracle planner</text>
<text x="360" y="40" font-size="11" fill="#52606d" text-anchor="middle">Uprightness u = cos(theta_1) + cos(theta_2). Upright pose at +2. Source: results/dmc_acrobot/coverage.json.</text>
<line x1="70.0" y1="350.0" x2="670.0" y2="350.0" stroke="#d8e0e8" stroke-dasharray="2,3" stroke-width="0.8"/>
<text x="62.0" y="354.0" font-size="11" fill="#52606d" text-anchor="end">0.00</text>
<line x1="70.0" y1="298.2" x2="670.0" y2="298.2" stroke="#d8e0e8" stroke-dasharray="2,3" stroke-width="0.8"/>
<text x="62.0" y="302.2" font-size="11" fill="#52606d" text-anchor="end">5.00</text>
<line x1="70.0" y1="246.4" x2="670.0" y2="246.4" stroke="#d8e0e8" stroke-dasharray="2,3" stroke-width="0.8"/>
<text x="62.0" y="250.4" font-size="11" fill="#52606d" text-anchor="end">10.00</text>
<line x1="70.0" y1="194.6" x2="670.0" y2="194.6" stroke="#d8e0e8" stroke-dasharray="2,3" stroke-width="0.8"/>
<text x="62.0" y="198.6" font-size="11" fill="#52606d" text-anchor="end">15.00</text>
<line x1="70.0" y1="142.9" x2="670.0" y2="142.9" stroke="#d8e0e8" stroke-dasharray="2,3" stroke-width="0.8"/>
<text x="62.0" y="146.9" font-size="11" fill="#52606d" text-anchor="end">20.00</text>
<line x1="70.0" y1="91.1" x2="670.0" y2="91.1" stroke="#d8e0e8" stroke-dasharray="2,3" stroke-width="0.8"/>
<text x="62.0" y="95.1" font-size="11" fill="#52606d" text-anchor="end">25.00</text>
<line x1="70.0" y1="60.0" x2="70.0" y2="350.0" stroke="#52606d" stroke-width="1"/>
<line x1="70.0" y1="350.0" x2="670.0" y2="350.0" stroke="#52606d" stroke-width="1"/>
<text x="20" y="205" font-size="11" fill="#52606d" text-anchor="middle" transform="rotate(-90 20 205)">Fraction of states (%)</text>
<text x="107.5" y="370.0" font-size="11" fill="#52606d" text-anchor="middle">[-2,-1.5)</text>
<text x="182.5" y="370.0" font-size="11" fill="#52606d" text-anchor="middle">[-1.5,-1)</text>
<text x="257.5" y="370.0" font-size="11" fill="#52606d" text-anchor="middle">[-1,-0.5)</text>
<text x="332.5" y="370.0" font-size="11" fill="#52606d" text-anchor="middle">[-0.5,0)</text>
<text x="407.5" y="370.0" font-size="11" fill="#52606d" text-anchor="middle">[0,0.5)</text>
<text x="482.5" y="370.0" font-size="11" fill="#52606d" text-anchor="middle">[0.5,1)</text>
<text x="557.5" y="370.0" font-size="11" fill="#52606d" text-anchor="middle">[1,1.5)</text>
<text x="632.5" y="370.0" font-size="11" fill="#52606d" text-anchor="middle">[1.5,2)</text>
<rect x="76.0" y="209.1" width="23.0" height="140.9" fill="#c45c3a" stroke="#8a3a1f" stroke-width="1"/>
<rect x="101.0" y="264.0" width="23.0" height="86.0" fill="#5083c2" stroke="#2f5a8a" stroke-width="1"/>
<rect x="151.0" y="102.5" width="23.0" height="247.5" fill="#c45c3a" stroke="#8a3a1f" stroke-width="1"/>
<rect x="176.0" y="270.2" width="23.0" height="79.8" fill="#5083c2" stroke="#2f5a8a" stroke-width="1"/>
<rect x="226.0" y="207.1" width="23.0" height="142.9" fill="#c45c3a" stroke="#8a3a1f" stroke-width="1"/>
<rect x="251.0" y="209.1" width="23.0" height="140.9" fill="#5083c2" stroke="#2f5a8a" stroke-width="1"/>
<rect x="301.0" y="209.1" width="23.0" height="140.9" fill="#c45c3a" stroke="#8a3a1f" stroke-width="1"/>
<rect x="326.0" y="227.8" width="23.0" height="122.2" fill="#5083c2" stroke="#2f5a8a" stroke-width="1"/>
<rect x="376.0" y="172.9" width="23.0" height="177.1" fill="#c45c3a" stroke="#8a3a1f" stroke-width="1"/>
<rect x="401.0" y="196.7" width="23.0" height="153.3" fill="#5083c2" stroke="#2f5a8a" stroke-width="1"/>
<rect x="451.0" y="164.6" width="23.0" height="185.4" fill="#c45c3a" stroke="#8a3a1f" stroke-width="1"/>
<rect x="476.0" y="105.6" width="23.0" height="244.4" fill="#5083c2" stroke="#2f5a8a" stroke-width="1"/>
<rect x="526.0" y="350.0" width="23.0" height="0.0" fill="#c45c3a" stroke="#8a3a1f" stroke-width="1"/>
<rect x="551.0" y="267.1" width="23.0" height="82.9" fill="#5083c2" stroke="#2f5a8a" stroke-width="1"/>
<rect x="601.0" y="350.0" width="23.0" height="0.0" fill="#c45c3a" stroke="#8a3a1f" stroke-width="1"/>
<rect x="626.0" y="223.6" width="23.0" height="126.4" fill="#5083c2" stroke="#2f5a8a" stroke-width="1"/>
<rect x="78" y="60" width="180" height="50" rx="4" fill="white" stroke="#d8e0e8"/>
<rect x="86" y="68" width="12" height="10" fill="#c45c3a" stroke="#8a3a1f"/>
<text x="104" y="77" font-size="10" fill="#1f2933">Random rollouts (n=2000)</text>
<rect x="86" y="84" width="12" height="10" fill="#5083c2" stroke="#2f5a8a"/>
<text x="104" y="93" font-size="10" fill="#1f2933">Oracle planner (n=846)</text>
</svg>
