<svg xmlns="http://www.w3.org/2000/svg" viewBox="0 0 720 440" width="720" height="440" font-family="ui-sans-serif, system-ui, -apple-system, Segoe UI, sans-serif" class="paper-fig">
<rect width="720" height="440" fill="#ffffff"/>
<text x="360" y="22" font-size="14" font-weight="600" fill="#1f2933" text-anchor="middle">Cross-env CPG: Acrobot vs Cartpole (model_size = 5)</text>
<text x="360" y="40" font-size="11" fill="#52606d" text-anchor="middle">Asymmetric Agresti-Caffo 95% CI per bar. Sources: results/dmc_acrobot/ + results/dmc_cartpole/*_size5_pooled.json.</text>
<line x1="70.0" y1="331.2" x2="670.0" y2="331.2" stroke="#d8e0e8" stroke-dasharray="2,3" stroke-width="0.8"/>
<text x="62.0" y="335.2" font-size="11" fill="#52606d" text-anchor="end">0.00</text>
<line x1="70.0" y1="266.7" x2="670.0" y2="266.7" stroke="#d8e0e8" stroke-dasharray="2,3" stroke-width="0.8"/>
<text x="62.0" y="270.7" font-size="11" fill="#52606d" text-anchor="end">0.25</text>
<line x1="70.0" y1="202.1" x2="670.0" y2="202.1" stroke="#d8e0e8" stroke-dasharray="2,3" stroke-width="0.8"/>
<text x="62.0" y="206.1" font-size="11" fill="#52606d" text-anchor="end">0.50</text>
<line x1="70.0" y1="137.5" x2="670.0" y2="137.5" stroke="#d8e0e8" stroke-dasharray="2,3" stroke-width="0.8"/>
<text x="62.0" y="141.5" font-size="11" fill="#52606d" text-anchor="end">0.75</text>
<line x1="70.0" y1="72.9" x2="670.0" y2="72.9" stroke="#d8e0e8" stroke-dasharray="2,3" stroke-width="0.8"/>
<text x="62.0" y="76.9" font-size="11" fill="#52606d" text-anchor="end">1.00</text>
<line x1="70.0" y1="60.0" x2="70.0" y2="370.0" stroke="#52606d" stroke-width="1"/>
<line x1="70.0" y1="370.0" x2="670.0" y2="370.0" stroke="#52606d" stroke-width="1"/>
<line x1="70" y1="331.2" x2="670" y2="331.2" stroke="#7b8794" stroke-dasharray="3,3" stroke-width="0.8"/>
<text x="20" y="215" font-size="11" fill="#52606d" text-anchor="middle" transform="rotate(-90 20 215)">Counterfactual Planning Gap</text>
<text x="145.0" y="390.0" font-size="11" fill="#52606d" text-anchor="middle">RS x MLP</text>
<text x="295.0" y="390.0" font-size="11" fill="#52606d" text-anchor="middle">RS x TD-MPC2</text>
<text x="445.0" y="390.0" font-size="11" fill="#52606d" text-anchor="middle">CEM x MLP</text>
<text x="595.0" y="390.0" font-size="11" fill="#52606d" text-anchor="middle">CEM x TD-MPC2</text>
<rect x="81.0" y="253.8" width="48.0" height="77.5" fill="#5083c2" stroke="#2f5a8a" stroke-width="1"/>
<line x1="105.0" y1="186.8" x2="105.0" y2="346.5" stroke="#2f5a8a" stroke-width="1.4"/><line x1="101.0" y1="186.8" x2="109.0" y2="186.8" stroke="#2f5a8a" stroke-width="1.4"/><line x1="101.0" y1="346.5" x2="109.0" y2="346.5" stroke="#2f5a8a" stroke-width="1.4"/>
<rect x="131.0" y="98.7" width="48.0" height="232.5" fill="#d68a3c" stroke="#9a5e1f" stroke-width="1"/>
<line x1="155.0" y1="79.9" x2="155.0" y2="146.8" stroke="#9a5e1f" stroke-width="1.4"/><line x1="151.0" y1="79.9" x2="159.0" y2="79.9" stroke="#9a5e1f" stroke-width="1.4"/><line x1="151.0" y1="146.8" x2="159.0" y2="146.8" stroke="#9a5e1f" stroke-width="1.4"/>
<rect x="231.0" y="253.8" width="48.0" height="77.5" fill="#5083c2" stroke="#2f5a8a" stroke-width="1"/>
<line x1="255.0" y1="186.8" x2="255.0" y2="346.5" stroke="#2f5a8a" stroke-width="1.4"/><line x1="251.0" y1="186.8" x2="259.0" y2="186.8" stroke="#2f5a8a" stroke-width="1.4"/><line x1="251.0" y1="346.5" x2="259.0" y2="346.5" stroke="#2f5a8a" stroke-width="1.4"/>
<rect x="281.0" y="150.4" width="48.0" height="180.8" fill="#d68a3c" stroke="#9a5e1f" stroke-width="1"/>
<line x1="305.0" y1="114.2" x2="305.0" y2="209.1" stroke="#9a5e1f" stroke-width="1.4"/><line x1="301.0" y1="114.2" x2="309.0" y2="114.2" stroke="#9a5e1f" stroke-width="1.4"/><line x1="301.0" y1="209.1" x2="309.0" y2="209.1" stroke="#9a5e1f" stroke-width="1.4"/>
<rect x="381.0" y="103.9" width="48.0" height="227.3" fill="#5083c2" stroke="#2f5a8a" stroke-width="1"/>
<line x1="405.0" y1="92.8" x2="405.0" y2="121.0" stroke="#2f5a8a" stroke-width="1.4"/><line x1="401.0" y1="92.8" x2="409.0" y2="92.8" stroke="#2f5a8a" stroke-width="1.4"/><line x1="401.0" y1="121.0" x2="409.0" y2="121.0" stroke="#2f5a8a" stroke-width="1.4"/>
<rect x="431.0" y="202.1" width="48.0" height="129.2" fill="#d68a3c" stroke="#9a5e1f" stroke-width="1"/>
<line x1="455.0" y1="162.8" x2="455.0" y2="257.6" stroke="#9a5e1f" stroke-width="1.4"/><line x1="451.0" y1="162.8" x2="459.0" y2="162.8" stroke="#9a5e1f" stroke-width="1.4"/><line x1="451.0" y1="257.6" x2="459.0" y2="257.6" stroke="#9a5e1f" stroke-width="1.4"/>
<rect x="531.0" y="103.9" width="48.0" height="227.3" fill="#5083c2" stroke="#2f5a8a" stroke-width="1"/>
<line x1="555.0" y1="92.8" x2="555.0" y2="121.0" stroke="#2f5a8a" stroke-width="1.4"/><line x1="551.0" y1="92.8" x2="559.0" y2="92.8" stroke="#2f5a8a" stroke-width="1.4"/><line x1="551.0" y1="121.0" x2="559.0" y2="121.0" stroke="#2f5a8a" stroke-width="1.4"/>
<rect x="581.0" y="236.4" width="48.0" height="94.8" fill="#d68a3c" stroke="#9a5e1f" stroke-width="1"/>
<line x1="605.0" y1="187.1" x2="605.0" y2="297.7" stroke="#9a5e1f" stroke-width="1.4"/><line x1="601.0" y1="187.1" x2="609.0" y2="187.1" stroke="#9a5e1f" stroke-width="1.4"/><line x1="601.0" y1="297.7" x2="609.0" y2="297.7" stroke="#9a5e1f" stroke-width="1.4"/>
<rect x="482" y="60" width="180" height="50" rx="4" fill="white" stroke="#d8e0e8"/>
<rect x="490" y="68" width="12" height="10" fill="#5083c2" stroke="#2f5a8a"/>
<text x="508" y="77" font-size="10" fill="#1f2933">Acrobot</text>
<rect x="490" y="84" width="12" height="10" fill="#d68a3c" stroke="#9a5e1f"/>
<text x="508" y="93" font-size="10" fill="#1f2933">Cartpole (size=5)</text>
</svg>
