<svg xmlns="http://www.w3.org/2000/svg" viewBox="0 0 594 282" width="594" height="282" font-family="ui-sans-serif, system-ui, -apple-system, Segoe UI, sans-serif" class="figure figure-comparison">
<rect width="594" height="282" fill="#ffffff"/>
<text x="97" y="28" font-size="13" font-weight="600" fill="#b34a00" text-anchor="middle">Random policy</text>
<rect x="20" y="48" width="22" height="22" fill="#1f2933" stroke="#c4cdd5" stroke-width="0.6"/>
<rect x="42" y="48" width="22" height="22" fill="#1f2933" stroke="#c4cdd5" stroke-width="0.6"/>
<rect x="64" y="48" width="22" height="22" fill="#1f2933" stroke="#c4cdd5" stroke-width="0.6"/>
<rect x="86" y="48" width="22" height="22" fill="#1f2933" stroke="#c4cdd5" stroke-width="0.6"/>
<rect x="108" y="48" width="22" height="22" fill="#1f2933" stroke="#c4cdd5" stroke-width="0.6"/>
<rect x="130" y="48" width="22" height="22" fill="#1f2933" stroke="#c4cdd5" stroke-width="0.6"/>
<rect x="152" y="48" width="22" height="22" fill="#1f2933" stroke="#c4cdd5" stroke-width="0.6"/>
<rect x="20" y="70" width="22" height="22" fill="#1f2933" stroke="#c4cdd5" stroke-width="0.6"/>
<rect x="42" y="70" width="22" height="22" fill="#f7f7f7" stroke="#c4cdd5" stroke-width="0.6"/>
<circle cx="53" cy="81" r="7" fill="#0f5fbf"/>
<rect x="64" y="70" width="22" height="22" fill="#1f2933" stroke="#c4cdd5" stroke-width="0.6"/>
<rect x="86" y="70" width="22" height="22" fill="#f7f7f7" stroke="#c4cdd5" stroke-width="0.6"/>
<rect x="108" y="70" width="22" height="22" fill="#f7f7f7" stroke="#c4cdd5" stroke-width="0.6"/>
<rect x="130" y="70" width="22" height="22" fill="#f7f7f7" stroke="#c4cdd5" stroke-width="0.6"/>
<rect x="152" y="70" width="22" height="22" fill="#1f2933" stroke="#c4cdd5" stroke-width="0.6"/>
<rect x="20" y="92" width="22" height="22" fill="#1f2933" stroke="#c4cdd5" stroke-width="0.6"/>
<rect x="42" y="92" width="22" height="22" fill="#f7f7f7" stroke="#c4cdd5" stroke-width="0.6"/>
<rect x="64" y="92" width="22" height="22" fill="#1f2933" stroke="#c4cdd5" stroke-width="0.6"/>
<rect x="86" y="92" width="22" height="22" fill="#f7f7f7" stroke="#c4cdd5" stroke-width="0.6"/>
<rect x="108" y="92" width="22" height="22" fill="#1f2933" stroke="#c4cdd5" stroke-width="0.6"/>
<rect x="130" y="92" width="22" height="22" fill="#f7f7f7" stroke="#c4cdd5" stroke-width="0.6"/>
<rect x="152" y="92" width="22" height="22" fill="#1f2933" stroke="#c4cdd5" stroke-width="0.6"/>
<rect x="20" y="114" width="22" height="22" fill="#1f2933" stroke="#c4cdd5" stroke-width="0.6"/>
<rect x="42" y="114" width="22" height="22" fill="#f7f7f7" stroke="#c4cdd5" stroke-width="0.6"/>
<rect x="64" y="114" width="22" height="22" fill="#1f2933" stroke="#c4cdd5" stroke-width="0.6"/>
<rect x="86" y="114" width="22" height="22" fill="#f7f7f7" stroke="#c4cdd5" stroke-width="0.6"/>
<rect x="108" y="114" width="22" height="22" fill="#1f2933" stroke="#c4cdd5" stroke-width="0.6"/>
<rect x="130" y="114" width="22" height="22" fill="#f7f7f7" stroke="#c4cdd5" stroke-width="0.6"/>
<rect x="152" y="114" width="22" height="22" fill="#1f2933" stroke="#c4cdd5" stroke-width="0.6"/>
<rect x="20" y="136" width="22" height="22" fill="#1f2933" stroke="#c4cdd5" stroke-width="0.6"/>
<rect x="42" y="136" width="22" height="22" fill="#f7f7f7" stroke="#c4cdd5" stroke-width="0.6"/>
<rect x="64" y="136" width="22" height="22" fill="#f7f7f7" stroke="#c4cdd5" stroke-width="0.6"/>
<rect x="86" y="136" width="22" height="22" fill="#f7f7f7" stroke="#c4cdd5" stroke-width="0.6"/>
<rect x="108" y="136" width="22" height="22" fill="#1f2933" stroke="#c4cdd5" stroke-width="0.6"/>
<rect x="130" y="136" width="22" height="22" fill="#f7f7f7" stroke="#c4cdd5" stroke-width="0.6"/>
<rect x="152" y="136" width="22" height="22" fill="#1f2933" stroke="#c4cdd5" stroke-width="0.6"/>
<rect x="20" y="158" width="22" height="22" fill="#1f2933" stroke="#c4cdd5" stroke-width="0.6"/>
<rect x="42" y="158" width="22" height="22" fill="#f7f7f7" stroke="#c4cdd5" stroke-width="0.6"/>
<rect x="64" y="158" width="22" height="22" fill="#1f2933" stroke="#c4cdd5" stroke-width="0.6"/>
<rect x="86" y="158" width="22" height="22" fill="#1f2933" stroke="#c4cdd5" stroke-width="0.6"/>
<rect x="108" y="158" width="22" height="22" fill="#1f2933" stroke="#c4cdd5" stroke-width="0.6"/>
<rect x="130" y="158" width="22" height="22" fill="#f7f7f7" stroke="#c4cdd5" stroke-width="0.6"/>
<circle cx="141" cy="169" r="7" fill="#b34a00"/>
<rect x="152" y="158" width="22" height="22" fill="#1f2933" stroke="#c4cdd5" stroke-width="0.6"/>
<rect x="20" y="180" width="22" height="22" fill="#1f2933" stroke="#c4cdd5" stroke-width="0.6"/>
<rect x="42" y="180" width="22" height="22" fill="#1f2933" stroke="#c4cdd5" stroke-width="0.6"/>
<rect x="64" y="180" width="22" height="22" fill="#1f2933" stroke="#c4cdd5" stroke-width="0.6"/>
<rect x="86" y="180" width="22" height="22" fill="#1f2933" stroke="#c4cdd5" stroke-width="0.6"/>
<rect x="108" y="180" width="22" height="22" fill="#1f2933" stroke="#c4cdd5" stroke-width="0.6"/>
<rect x="130" y="180" width="22" height="22" fill="#1f2933" stroke="#c4cdd5" stroke-width="0.6"/>
<rect x="152" y="180" width="22" height="22" fill="#1f2933" stroke="#c4cdd5" stroke-width="0.6"/>
<path id="agent-path-random" d="M 53,81 L 53,103 L 75,103 L 53,103 L 53,81 L 75,81" fill="none" stroke="#b34a00" stroke-width="2" stroke-opacity="0.35" stroke-linecap="round" stroke-linejoin="round" stroke-dasharray="3,3"/>
<g class="agent-dot"><circle r="7" fill="#b34a00" stroke="white" stroke-width="2"><animateMotion dur="2.6s" repeatCount="indefinite"><mpath href="#agent-path-random" /></animateMotion></circle></g>
<text x="97" y="228" font-size="12" font-weight="500" fill="#1f2933" text-anchor="middle">Never reaches the goal.</text>
<text x="97" y="246" font-size="11" fill="#52606d" text-anchor="middle" font-family="ui-monospace, SFMono-Regular, Menlo, monospace">success 0% / 0.03 ms / call</text>
<text x="297" y="28" font-size="13" font-weight="600" fill="#52606d" text-anchor="middle">Greedy (no waypoint)</text>
<rect x="220" y="48" width="22" height="22" fill="#1f2933" stroke="#c4cdd5" stroke-width="0.6"/>
<rect x="242" y="48" width="22" height="22" fill="#1f2933" stroke="#c4cdd5" stroke-width="0.6"/>
<rect x="264" y="48" width="22" height="22" fill="#1f2933" stroke="#c4cdd5" stroke-width="0.6"/>
<rect x="286" y="48" width="22" height="22" fill="#1f2933" stroke="#c4cdd5" stroke-width="0.6"/>
<rect x="308" y="48" width="22" height="22" fill="#1f2933" stroke="#c4cdd5" stroke-width="0.6"/>
<rect x="330" y="48" width="22" height="22" fill="#1f2933" stroke="#c4cdd5" stroke-width="0.6"/>
<rect x="352" y="48" width="22" height="22" fill="#1f2933" stroke="#c4cdd5" stroke-width="0.6"/>
<rect x="220" y="70" width="22" height="22" fill="#1f2933" stroke="#c4cdd5" stroke-width="0.6"/>
<rect x="242" y="70" width="22" height="22" fill="#f7f7f7" stroke="#c4cdd5" stroke-width="0.6"/>
<circle cx="253" cy="81" r="7" fill="#0f5fbf"/>
<rect x="264" y="70" width="22" height="22" fill="#1f2933" stroke="#c4cdd5" stroke-width="0.6"/>
<rect x="286" y="70" width="22" height="22" fill="#f7f7f7" stroke="#c4cdd5" stroke-width="0.6"/>
<rect x="308" y="70" width="22" height="22" fill="#f7f7f7" stroke="#c4cdd5" stroke-width="0.6"/>
<rect x="330" y="70" width="22" height="22" fill="#f7f7f7" stroke="#c4cdd5" stroke-width="0.6"/>
<rect x="352" y="70" width="22" height="22" fill="#1f2933" stroke="#c4cdd5" stroke-width="0.6"/>
<rect x="220" y="92" width="22" height="22" fill="#1f2933" stroke="#c4cdd5" stroke-width="0.6"/>
<rect x="242" y="92" width="22" height="22" fill="#f7f7f7" stroke="#c4cdd5" stroke-width="0.6"/>
<rect x="264" y="92" width="22" height="22" fill="#1f2933" stroke="#c4cdd5" stroke-width="0.6"/>
<rect x="286" y="92" width="22" height="22" fill="#f7f7f7" stroke="#c4cdd5" stroke-width="0.6"/>
<rect x="308" y="92" width="22" height="22" fill="#1f2933" stroke="#c4cdd5" stroke-width="0.6"/>
<rect x="330" y="92" width="22" height="22" fill="#f7f7f7" stroke="#c4cdd5" stroke-width="0.6"/>
<rect x="352" y="92" width="22" height="22" fill="#1f2933" stroke="#c4cdd5" stroke-width="0.6"/>
<rect x="220" y="114" width="22" height="22" fill="#1f2933" stroke="#c4cdd5" stroke-width="0.6"/>
<rect x="242" y="114" width="22" height="22" fill="#f7f7f7" stroke="#c4cdd5" stroke-width="0.6"/>
<rect x="264" y="114" width="22" height="22" fill="#1f2933" stroke="#c4cdd5" stroke-width="0.6"/>
<rect x="286" y="114" width="22" height="22" fill="#f7f7f7" stroke="#c4cdd5" stroke-width="0.6"/>
<rect x="308" y="114" width="22" height="22" fill="#1f2933" stroke="#c4cdd5" stroke-width="0.6"/>
<rect x="330" y="114" width="22" height="22" fill="#f7f7f7" stroke="#c4cdd5" stroke-width="0.6"/>
<rect x="352" y="114" width="22" height="22" fill="#1f2933" stroke="#c4cdd5" stroke-width="0.6"/>
<rect x="220" y="136" width="22" height="22" fill="#1f2933" stroke="#c4cdd5" stroke-width="0.6"/>
<rect x="242" y="136" width="22" height="22" fill="#f7f7f7" stroke="#c4cdd5" stroke-width="0.6"/>
<rect x="264" y="136" width="22" height="22" fill="#f7f7f7" stroke="#c4cdd5" stroke-width="0.6"/>
<rect x="286" y="136" width="22" height="22" fill="#f7f7f7" stroke="#c4cdd5" stroke-width="0.6"/>
<rect x="308" y="136" width="22" height="22" fill="#1f2933" stroke="#c4cdd5" stroke-width="0.6"/>
<rect x="330" y="136" width="22" height="22" fill="#f7f7f7" stroke="#c4cdd5" stroke-width="0.6"/>
<rect x="352" y="136" width="22" height="22" fill="#1f2933" stroke="#c4cdd5" stroke-width="0.6"/>
<rect x="220" y="158" width="22" height="22" fill="#1f2933" stroke="#c4cdd5" stroke-width="0.6"/>
<rect x="242" y="158" width="22" height="22" fill="#f7f7f7" stroke="#c4cdd5" stroke-width="0.6"/>
<rect x="264" y="158" width="22" height="22" fill="#1f2933" stroke="#c4cdd5" stroke-width="0.6"/>
<rect x="286" y="158" width="22" height="22" fill="#1f2933" stroke="#c4cdd5" stroke-width="0.6"/>
<rect x="308" y="158" width="22" height="22" fill="#1f2933" stroke="#c4cdd5" stroke-width="0.6"/>
<rect x="330" y="158" width="22" height="22" fill="#f7f7f7" stroke="#c4cdd5" stroke-width="0.6"/>
<circle cx="341" cy="169" r="7" fill="#b34a00"/>
<rect x="352" y="158" width="22" height="22" fill="#1f2933" stroke="#c4cdd5" stroke-width="0.6"/>
<rect x="220" y="180" width="22" height="22" fill="#1f2933" stroke="#c4cdd5" stroke-width="0.6"/>
<rect x="242" y="180" width="22" height="22" fill="#1f2933" stroke="#c4cdd5" stroke-width="0.6"/>
<rect x="264" y="180" width="22" height="22" fill="#1f2933" stroke="#c4cdd5" stroke-width="0.6"/>
<rect x="286" y="180" width="22" height="22" fill="#1f2933" stroke="#c4cdd5" stroke-width="0.6"/>
<rect x="308" y="180" width="22" height="22" fill="#1f2933" stroke="#c4cdd5" stroke-width="0.6"/>
<rect x="330" y="180" width="22" height="22" fill="#1f2933" stroke="#c4cdd5" stroke-width="0.6"/>
<rect x="352" y="180" width="22" height="22" fill="#1f2933" stroke="#c4cdd5" stroke-width="0.6"/>
<g class="agent-dot agent-stuck"><circle cx="253" cy="81" r="7" fill="#52606d" stroke="white" stroke-width="2"><animate attributeName="cx" values="253;257;253;257;253" dur="1.2s" repeatCount="indefinite"/></circle></g>
<text x="297" y="228" font-size="12" font-weight="500" fill="#1f2933" text-anchor="middle">Bumps the wall, gets stuck.</text>
<text x="297" y="246" font-size="11" fill="#52606d" text-anchor="middle" font-family="ui-monospace, SFMono-Regular, Menlo, monospace">success 0% / 0.001 ms / call</text>
<text x="497" y="28" font-size="13" font-weight="600" fill="#0f5fbf" text-anchor="middle">Tabular world model</text>
<rect x="420" y="48" width="22" height="22" fill="#1f2933" stroke="#c4cdd5" stroke-width="0.6"/>
<rect x="442" y="48" width="22" height="22" fill="#1f2933" stroke="#c4cdd5" stroke-width="0.6"/>
<rect x="464" y="48" width="22" height="22" fill="#1f2933" stroke="#c4cdd5" stroke-width="0.6"/>
<rect x="486" y="48" width="22" height="22" fill="#1f2933" stroke="#c4cdd5" stroke-width="0.6"/>
<rect x="508" y="48" width="22" height="22" fill="#1f2933" stroke="#c4cdd5" stroke-width="0.6"/>
<rect x="530" y="48" width="22" height="22" fill="#1f2933" stroke="#c4cdd5" stroke-width="0.6"/>
<rect x="552" y="48" width="22" height="22" fill="#1f2933" stroke="#c4cdd5" stroke-width="0.6"/>
<rect x="420" y="70" width="22" height="22" fill="#1f2933" stroke="#c4cdd5" stroke-width="0.6"/>
<rect x="442" y="70" width="22" height="22" fill="#f7f7f7" stroke="#c4cdd5" stroke-width="0.6"/>
<circle cx="453" cy="81" r="7" fill="#0f5fbf"/>
<rect x="464" y="70" width="22" height="22" fill="#1f2933" stroke="#c4cdd5" stroke-width="0.6"/>
<rect x="486" y="70" width="22" height="22" fill="#f7f7f7" stroke="#c4cdd5" stroke-width="0.6"/>
<rect x="508" y="70" width="22" height="22" fill="#f7f7f7" stroke="#c4cdd5" stroke-width="0.6"/>
<rect x="530" y="70" width="22" height="22" fill="#f7f7f7" stroke="#c4cdd5" stroke-width="0.6"/>
<rect x="552" y="70" width="22" height="22" fill="#1f2933" stroke="#c4cdd5" stroke-width="0.6"/>
<rect x="420" y="92" width="22" height="22" fill="#1f2933" stroke="#c4cdd5" stroke-width="0.6"/>
<rect x="442" y="92" width="22" height="22" fill="#f7f7f7" stroke="#c4cdd5" stroke-width="0.6"/>
<rect x="464" y="92" width="22" height="22" fill="#1f2933" stroke="#c4cdd5" stroke-width="0.6"/>
<rect x="486" y="92" width="22" height="22" fill="#f7f7f7" stroke="#c4cdd5" stroke-width="0.6"/>
<rect x="508" y="92" width="22" height="22" fill="#1f2933" stroke="#c4cdd5" stroke-width="0.6"/>
<rect x="530" y="92" width="22" height="22" fill="#f7f7f7" stroke="#c4cdd5" stroke-width="0.6"/>
<rect x="552" y="92" width="22" height="22" fill="#1f2933" stroke="#c4cdd5" stroke-width="0.6"/>
<rect x="420" y="114" width="22" height="22" fill="#1f2933" stroke="#c4cdd5" stroke-width="0.6"/>
<rect x="442" y="114" width="22" height="22" fill="#f7f7f7" stroke="#c4cdd5" stroke-width="0.6"/>
<rect x="464" y="114" width="22" height="22" fill="#1f2933" stroke="#c4cdd5" stroke-width="0.6"/>
<rect x="486" y="114" width="22" height="22" fill="#f7f7f7" stroke="#c4cdd5" stroke-width="0.6"/>
<rect x="508" y="114" width="22" height="22" fill="#1f2933" stroke="#c4cdd5" stroke-width="0.6"/>
<rect x="530" y="114" width="22" height="22" fill="#f7f7f7" stroke="#c4cdd5" stroke-width="0.6"/>
<rect x="552" y="114" width="22" height="22" fill="#1f2933" stroke="#c4cdd5" stroke-width="0.6"/>
<rect x="420" y="136" width="22" height="22" fill="#1f2933" stroke="#c4cdd5" stroke-width="0.6"/>
<rect x="442" y="136" width="22" height="22" fill="#f7f7f7" stroke="#c4cdd5" stroke-width="0.6"/>
<rect x="464" y="136" width="22" height="22" fill="#f7f7f7" stroke="#c4cdd5" stroke-width="0.6"/>
<rect x="486" y="136" width="22" height="22" fill="#f7f7f7" stroke="#c4cdd5" stroke-width="0.6"/>
<rect x="508" y="136" width="22" height="22" fill="#1f2933" stroke="#c4cdd5" stroke-width="0.6"/>
<rect x="530" y="136" width="22" height="22" fill="#f7f7f7" stroke="#c4cdd5" stroke-width="0.6"/>
<rect x="552" y="136" width="22" height="22" fill="#1f2933" stroke="#c4cdd5" stroke-width="0.6"/>
<rect x="420" y="158" width="22" height="22" fill="#1f2933" stroke="#c4cdd5" stroke-width="0.6"/>
<rect x="442" y="158" width="22" height="22" fill="#f7f7f7" stroke="#c4cdd5" stroke-width="0.6"/>
<rect x="464" y="158" width="22" height="22" fill="#1f2933" stroke="#c4cdd5" stroke-width="0.6"/>
<rect x="486" y="158" width="22" height="22" fill="#1f2933" stroke="#c4cdd5" stroke-width="0.6"/>
<rect x="508" y="158" width="22" height="22" fill="#1f2933" stroke="#c4cdd5" stroke-width="0.6"/>
<rect x="530" y="158" width="22" height="22" fill="#f7f7f7" stroke="#c4cdd5" stroke-width="0.6"/>
<circle cx="541" cy="169" r="7" fill="#b34a00"/>
<rect x="552" y="158" width="22" height="22" fill="#1f2933" stroke="#c4cdd5" stroke-width="0.6"/>
<rect x="420" y="180" width="22" height="22" fill="#1f2933" stroke="#c4cdd5" stroke-width="0.6"/>
<rect x="442" y="180" width="22" height="22" fill="#1f2933" stroke="#c4cdd5" stroke-width="0.6"/>
<rect x="464" y="180" width="22" height="22" fill="#1f2933" stroke="#c4cdd5" stroke-width="0.6"/>
<rect x="486" y="180" width="22" height="22" fill="#1f2933" stroke="#c4cdd5" stroke-width="0.6"/>
<rect x="508" y="180" width="22" height="22" fill="#1f2933" stroke="#c4cdd5" stroke-width="0.6"/>
<rect x="530" y="180" width="22" height="22" fill="#1f2933" stroke="#c4cdd5" stroke-width="0.6"/>
<rect x="552" y="180" width="22" height="22" fill="#1f2933" stroke="#c4cdd5" stroke-width="0.6"/>
<path id="agent-path-wm" d="M 453,81 L 453,103 L 453,125 L 453,147 L 475,147 L 497,147 L 497,125 L 497,103 L 497,81 L 519,81 L 541,81 L 541,103 L 541,125 L 541,147 L 541,169" fill="none" stroke="#0f5fbf" stroke-width="2" stroke-opacity="0.35" stroke-linecap="round" stroke-linejoin="round" stroke-dasharray="3,3"/>
<g class="agent-dot"><circle r="7" fill="#0f5fbf" stroke="white" stroke-width="2"><animateMotion dur="4.5s" repeatCount="indefinite"><mpath href="#agent-path-wm" /></animateMotion></circle></g>
<text x="497" y="228" font-size="12" font-weight="500" fill="#1f2933" text-anchor="middle">Reaches the goal in ~34 steps.</text>
<text x="497" y="246" font-size="11" fill="#52606d" text-anchor="middle" font-family="ui-monospace, SFMono-Regular, Menlo, monospace">success 100% / 3.12 ms / call / ~256 rollout-units per decision</text>
</svg>
